<?xml version="1.0" standalone="no"?>
<!DOCTYPE svg PUBLIC "-//W3C//DTD SVG 20010904//EN"
 "http://www.w3.org/TR/2001/REC-SVG-20010904/DTD/svg10.dtd">
<svg version="1.0" xmlns="http://www.w3.org/2000/svg"
 width="512.000000pt" height="512.000000pt" viewBox="0 0 512.000000 512.000000"
 preserveAspectRatio="xMidYMid meet">
<metadata>
Created by potrace 1.11, written by Peter Selinger 2001-2013
</metadata>
<g transform="translate(0.000000,512.000000) scale(0.100000,-0.100000)"
fill="#000000" stroke="none">
<path d="M1804 5065 c-137 -81 -171 -330 -67 -486 64 -97 173 -111 255 -32 95
91 112 317 34 442 -58 91 -146 121 -222 76z"/>
<path d="M624 4586 c-53 -30 -76 -78 -72 -147 14 -207 277 -397 437 -315 157
82 40 381 -181 462 -67 25 -140 25 -184 0z"/>
<path d="M2975 4596 c-71 -22 -121 -54 -174 -108 -64 -66 -103 -145 -107 -217
-3 -72 2 -84 35 -76 90 23 235 43 338 46 51 2 54 4 82 48 47 75 65 151 48 211
-23 87 -119 129 -222 96z"/>
<path d="M1760 4288 c-421 -44 -786 -371 -870 -782 -26 -126 -28 -273 -6 -381
17 -83 44 -163 81 -240 68 -142 61 -140 127 -43 31 46 93 122 137 168 78 82
80 86 71 116 -19 55 -22 78 -25 159 -8 264 153 493 410 581 69 24 95 28 195
27 82 0 128 -5 162 -17 l48 -17 77 59 c68 52 206 142 217 142 2 0 23 11 46 24
l43 24 -79 46 c-189 110 -410 157 -634 134z"/>
<path d="M3047 3944 c-1 -1 -36 -5 -76 -8 -41 -4 -78 -9 -81 -11 -4 -2 -22 -7
-41 -10 -129 -22 -348 -121 -470 -212 -130 -98 -322 -314 -304 -343 3 -6 10
-8 14 -6 13 9 134 -21 216 -53 78 -30 230 -121 296 -177 43 -37 158 -151 184
-184 19 -23 18 -23 -18 4 -59 43 -233 121 -327 146 -69 19 -113 23 -230 24
-150 1 -183 -2 -285 -29 -276 -72 -521 -267 -645 -515 -35 -70 -83 -190 -75
-190 2 0 0 -11 -5 -24 -18 -48 -24 -114 -24 -246 0 -108 5 -152 23 -220 99
-371 367 -638 741 -737 l105 -28 1125 0 c619 0 1146 4 1172 8 266 42 518 226
636 462 29 58 59 139 68 180 64 303 -15 584 -223 793 -103 103 -207 167 -354
217 -223 76 -511 33 -747 -110 l-43 -26 43 62 c131 190 313 309 512 334 31 4
58 10 60 14 7 10 -40 136 -79 213 -63 122 -126 210 -225 308 -141 141 -293
237 -475 298 -93 32 -106 35 -217 53 -58 9 -244 19 -251 13z"/>
<path d="M378 3505 c-2 -1 -32 -5 -68 -9 -81 -7 -180 -54 -216 -102 -100 -130
48 -288 268 -287 195 0 336 114 295 238 -14 43 -65 94 -117 118 -41 18 -155
48 -162 42z"/>
<path d="M827 2490 c-149 -46 -267 -186 -275 -324 -4 -69 16 -111 65 -143 39
-26 143 -24 206 4 l47 22 1 98 c0 54 2 107 4 118 2 11 6 38 10 60 7 53 11 72
25 124 17 63 6 68 -83 41z"/>
<path d="M2184 764 c-27 -31 -57 -66 -68 -78 -36 -41 -106 -153 -138 -221 -33
-72 -47 -177 -28 -214 4 -9 14 -31 21 -49 17 -47 85 -113 144 -141 75 -36 181
-35 255 1 70 35 113 76 144 141 46 96 41 167 -21 293 -52 105 -223 324 -252
324 -5 0 -31 -25 -57 -56z"/>
<path d="M3174 743 c-182 -213 -252 -378 -210 -499 74 -219 354 -283 507 -117
101 110 108 216 26 378 -55 109 -217 315 -248 315 -5 0 -38 -35 -75 -77z"/>
<path d="M4224 788 c-105 -115 -184 -227 -229 -328 -25 -54 -30 -78 -30 -140
1 -66 5 -83 31 -130 100 -178 350 -209 488 -60 69 75 95 170 71 262 -16 59
-79 177 -136 255 -45 61 -147 173 -158 173 -4 0 -20 -15 -37 -32z"/>
</g>
</svg>
